<svg width="15" height="13" viewBox="0 0 15 13" fill="none" xmlns="http://www.w3.org/2000/svg">
<path fill-rule="evenodd" clip-rule="evenodd" d="M6.5851 10.4469C7.08564 10.4469 7.49194 10.8532 7.49194 11.3537C7.49194 11.8542 7.08564 12.2605 6.5851 12.2605C6.08455 12.2605 5.67825 11.8542 5.67825 11.3537C5.67825 10.8532 6.08455 10.4469 6.5851 10.4469ZM10.5295 10.4469C11.03 10.4469 11.4363 10.8532 11.4363 11.3537C11.4363 11.8542 11.03 12.2605 10.5295 12.2605C10.0289 12.2605 9.62264 11.8542 9.62264 11.3537C9.62264 10.8532 10.0289 10.4469 10.5295 10.4469ZM0.563677 1.3879H1.8448C2.09417 1.3879 2.31333 1.55429 2.38007 1.7951C2.38007 1.7951 2.38052 1.7951 2.38052 1.79555C2.81207 3.34904 3.74462 6.70585 4.17797 8.2652C4.38135 8.99798 5.04874 9.50484 5.80858 9.50484H11.2839C12.0609 9.50484 12.7382 8.97589 12.9262 8.22191C13.3077 6.69728 14.0653 3.6665 14.0653 3.6665C14.1073 3.4983 14.0694 3.31973 13.9625 3.18309C13.8556 3.04601 13.6919 2.96619 13.5183 2.96619H5.67825C5.3671 2.96619 5.11458 3.21872 5.11458 3.52987C5.11458 3.84102 5.3671 4.09354 5.67825 4.09354H12.7964L11.8322 7.94954C11.7696 8.20117 11.5432 8.37749 11.2839 8.37749H5.80858C5.5547 8.37749 5.33193 8.20793 5.26384 7.96352C4.83048 6.40417 3.89794 3.04691 3.46639 1.49342C3.26482 0.765147 2.60103 0.260544 1.8448 0.260544H0.563677C0.252527 0.260544 0 0.513071 0 0.82422C0 1.13537 0.252527 1.3879 0.563677 1.3879Z" fill="#333333"/>
</svg>
