<svg xmlns="http://www.w3.org/2000/svg" width="36" height="36" viewBox="0 0 36 36" fill="none"><path fill-rule="evenodd" clip-rule="evenodd" d="M29.25 15.75V12.375H3.375V24.75C3.375 25.3713 3.87868 25.875 4.5 25.875H12.375V28.125H4.5C2.63604 28.125 1.125 26.614 1.125 24.75V11.25C1.125 10.999 1.20894 10.7552 1.36347 10.5574L7.71908 2.4222C8.35869 1.6035 9.33975 1.125 10.3787 1.125H22.2463C23.2852 1.125 24.2663 1.6035 24.9059 2.4222L31.2615 10.5574C31.4161 10.7552 31.5 10.999 31.5 11.25V15.75H29.25ZM10.3787 3.375C10.0324 3.375 9.70538 3.5345 9.49213 3.8074L4.55653 10.125H15.1875V3.375H10.3787ZM17.4375 3.375V10.125H28.0685L23.1329 3.8074C22.9196 3.5345 22.5926 3.375 22.2463 3.375H17.4375Z" fill="black"></path><path fill-rule="evenodd" clip-rule="evenodd" d="M31.5002 18C33.3642 18 34.8752 19.511 34.8752 21.375V22.4778C34.8755 22.4919 34.8755 22.5061 34.8752 22.5201V31.5C34.8752 33.364 33.3642 34.875 31.5002 34.875H18.0002C16.1363 34.875 14.6252 33.364 14.6252 31.5V22.5201C14.6249 22.506 14.6249 22.492 14.6252 22.4779V21.375C14.6252 19.511 16.1363 18 18.0002 18H31.5002ZM32.6252 21.375V21.842L25.3017 25.9615C24.9593 26.1541 24.5411 26.1541 24.1987 25.9615L16.8752 21.842V21.375C16.8752 20.7537 17.3789 20.25 18.0002 20.25H31.5002C32.1215 20.25 32.6252 20.7537 32.6252 21.375ZM16.8752 31.5V24.4236L23.0956 27.9226C24.123 28.5005 25.3775 28.5005 26.4049 27.9226L32.6252 24.4236V31.5C32.6252 32.1213 32.1215 32.625 31.5002 32.625H18.0002C17.3789 32.625 16.8752 32.1213 16.8752 31.5Z" fill="black"></path></svg>