<svg xmlns="http://www.w3.org/2000/svg" width="36" height="36" viewBox="0 0 36 36" fill="none"><g clip-path="url(#clip0_802_7428)"><path d="M29.3659 14.3873H15.9552C16.5753 13.6744 16.9521 12.7446 16.9521 11.7278C16.9521 9.49026 15.1317 7.66992 12.8942 7.66992C10.6566 7.66992 8.83631 9.49026 8.83631 11.7278C8.83631 12.7446 9.2131 13.6744 9.83317 14.3873H6.63188C4.69738 14.3873 3.12354 15.9611 3.12354 17.8956V22.0354C3.12354 22.4229 3.43767 22.7371 3.8252 22.7371C4.21273 22.7371 4.52687 22.4229 4.52687 22.0354V17.8956C4.52687 16.7349 5.47118 15.7906 6.63188 15.7906H26.2786C27.4393 15.7906 28.3836 16.7349 28.3836 17.8956V21.6846H21.0862C19.1517 21.6846 17.5779 23.2585 17.5779 25.193C17.5779 27.1275 19.1517 28.7013 21.0862 28.7013H28.3836V32.4903C28.3836 33.651 27.4393 34.5953 26.2786 34.5953H6.63188C5.47118 34.5953 4.52687 33.651 4.52687 32.4903V28.345C4.52687 27.9575 4.21273 27.6433 3.8252 27.6433C3.43767 27.6433 3.12354 27.9575 3.12354 28.345V32.4903C3.12354 34.4248 4.69738 35.9987 6.63188 35.9987H29.3659C31.3004 35.9987 32.8743 34.4248 32.8743 32.4903V17.8956C32.8743 15.9611 31.3004 14.3873 29.3659 14.3873ZM12.8942 9.07333C14.3579 9.07333 15.5487 10.2641 15.5487 11.7279C15.5487 13.1916 14.3579 14.3824 12.8942 14.3824C11.4305 14.3824 10.2396 13.1916 10.2396 11.7279C10.2396 10.2641 11.4304 9.07333 12.8942 9.07333ZM29.0834 15.7906H29.3659C30.5266 15.7906 31.4709 16.7349 31.4709 17.8956V21.6846H29.7869V17.8956C29.7869 17.1064 29.5248 16.3774 29.0834 15.7906ZM18.9812 25.193C18.9812 24.0323 19.9255 23.088 21.0862 23.088H31.4709V27.298H21.0862C19.9255 27.298 18.9812 26.3537 18.9812 25.193ZM29.3659 34.5953H29.0834C29.5248 34.0085 29.7869 33.2795 29.7869 32.4903V28.7013H31.4709V32.4903C31.4709 33.651 30.5266 34.5953 29.3659 34.5953Z" fill="white"></path><path d="M20.9067 24.4941C20.7215 24.4941 20.5405 24.5692 20.41 24.6997C20.2795 24.8302 20.2051 25.0113 20.2051 25.1958C20.2051 25.3803 20.2795 25.5614 20.41 25.6919C20.5412 25.8224 20.7215 25.8975 20.9067 25.8975C21.0913 25.8975 21.2716 25.8224 21.4028 25.6919C21.5333 25.5614 21.6084 25.3803 21.6084 25.1958C21.6084 25.0113 21.5333 24.8302 21.4028 24.6997C21.2723 24.5691 21.0913 24.4941 20.9067 24.4941Z" fill="white"></path><path d="M23.1043 9.65874C25.3418 9.65874 27.1622 7.83841 27.1622 5.60086C27.1622 3.36338 25.3418 1.54297 23.1043 1.54297C20.8667 1.54297 19.0464 3.36331 19.0464 5.60086C19.0464 7.83841 20.8667 9.65874 23.1043 9.65874ZM23.1043 2.94638C24.568 2.94638 25.7588 4.13718 25.7588 5.60093C25.7588 7.06468 24.568 8.25548 23.1043 8.25548C21.6405 8.25548 20.4497 7.06468 20.4497 5.60093C20.4497 4.13718 21.6405 2.94638 23.1043 2.94638Z" fill="white"></path><path d="M16.2505 6.91809C16.638 6.91809 16.9522 6.60395 16.9522 6.21642V0.702645C16.9522 0.315113 16.638 0.000976562 16.2505 0.000976562C15.863 0.000976562 15.5488 0.315113 15.5488 0.702645V6.21642C15.5488 6.60395 15.863 6.91809 16.2505 6.91809Z" fill="white"></path><path d="M12.8833 4.49165C13.2708 4.49165 13.585 4.17752 13.585 3.78998V0.702645C13.585 0.315113 13.2708 0.000976562 12.8833 0.000976562C12.4958 0.000976562 12.1816 0.315113 12.1816 0.702645V3.78998C12.1816 4.17752 12.4958 4.49165 12.8833 4.49165Z" fill="white"></path><path d="M3.8252 25.8975C4.00974 25.8975 4.19077 25.8224 4.32128 25.6919C4.45179 25.5614 4.52687 25.3803 4.52687 25.1958C4.52687 25.0113 4.45179 24.8302 4.32128 24.6997C4.19077 24.5692 4.01044 24.4941 3.8252 24.4941C3.64066 24.4941 3.45963 24.5692 3.32912 24.6997C3.19861 24.8302 3.12354 25.0113 3.12354 25.1958C3.12354 25.3803 3.19861 25.5614 3.32912 25.6919C3.45963 25.8224 3.64059 25.8975 3.8252 25.8975Z" fill="white"></path></g><defs><clipPath id="clip0_802_7428"><rect width="36" height="36" fill="white" transform="translate(0.000488281 -0.00292969)"></rect></clipPath></defs></svg>