<svg xmlns="http://www.w3.org/2000/svg" width="36" height="36" viewBox="0 0 36 36" fill="none"><g clip-path="url(#clip0_802_7484)"><path d="M30.7299 5.27203C27.3301 1.87235 22.8099 0 18.002 0C13.1939 0 8.67366 1.87235 5.27398 5.27203C1.87423 8.67178 0.00195312 13.192 0.00195312 18C0.00195312 22.808 1.87423 27.3281 5.27398 30.7279C8.67373 34.1277 13.1939 36 18.002 36C22.8099 36 27.3301 34.1277 30.7299 30.7279C34.1296 27.3281 36.002 22.808 36.002 18C36.002 13.192 34.1296 8.67185 30.7299 5.27203ZM18.002 33.8906C9.23982 33.8906 2.11133 26.7621 2.11133 18C2.11133 9.23787 9.23982 2.10938 18.002 2.10938C26.7641 2.10938 33.8926 9.23787 33.8926 18C33.8926 26.7621 26.7641 33.8906 18.002 33.8906Z" fill="black"></path><path d="M26.5999 12.216C26.1881 11.8043 25.5203 11.8043 25.1085 12.2161L15.7949 21.5296L10.8923 16.6269C10.4804 16.2151 9.81261 16.2151 9.40071 16.6269C8.98882 17.0388 8.98882 17.7066 9.40071 18.1185L15.0491 23.7669C15.2551 23.9728 15.525 24.0758 15.7949 24.0758C16.0647 24.0758 16.3347 23.9728 16.5406 23.7669L26.5999 13.7076C27.0118 13.2957 27.0118 12.6279 26.5999 12.216Z" fill="black"></path></g><defs><clipPath id="clip0_802_7484"><rect width="36" height="36" fill="white" transform="translate(-0.00146484 -0.00390625)"></rect></clipPath></defs></svg>