<svg xmlns="http://www.w3.org/2000/svg" width="37" height="36" viewBox="0 0 37 36" fill="none"><g clip-path="url(#clip0_802_7442)"><path d="M18.6987 0.000976562C18.1163 0.000976562 17.644 0.473195 17.644 1.05566V7.83379C17.644 8.41626 18.1163 8.88848 18.6987 8.88848C19.2812 8.88848 19.7534 8.41626 19.7534 7.83379V1.05566C19.7534 0.473195 19.2812 0.000976562 18.6987 0.000976562Z" fill="black"></path><path d="M18.6987 27.1094C18.1163 27.1094 17.644 27.5816 17.644 28.1641V34.9421C17.644 35.5246 18.1163 35.9968 18.6987 35.9968C19.2812 35.9968 19.7534 35.5246 19.7534 34.9421V28.1641C19.7534 27.5815 19.2812 27.1094 18.6987 27.1094Z" fill="black"></path><path d="M14.5282 8.66515L11.1391 2.79511C10.8479 2.29062 10.2028 2.11779 9.69839 2.4091C9.19397 2.70033 9.02114 3.34538 9.31237 3.8498L12.7014 9.71984C12.8968 10.0583 13.2513 10.2473 13.6158 10.2473C13.7947 10.2473 13.9761 10.2018 14.1421 10.1059C14.6466 9.81462 14.8194 9.16958 14.5282 8.66515Z" fill="black"></path><path d="M28.0847 32.1445L24.6957 26.2746C24.4045 25.7701 23.7595 25.5973 23.255 25.8886C22.7506 26.1798 22.5778 26.8249 22.869 27.3293L26.258 33.1992C26.4533 33.5376 26.8078 33.7267 27.1723 33.7267C27.3513 33.7267 27.5326 33.6811 27.6987 33.5852C28.2031 33.294 28.376 32.6489 28.0847 32.1445Z" fill="black"></path><path d="M10.4205 12.0043L4.55044 8.61518C4.04588 8.32381 3.40097 8.49671 3.10974 9.0012C2.8185 9.50562 2.99133 10.1507 3.49575 10.4419L9.36586 13.8311C9.53194 13.927 9.71327 13.9726 9.89222 13.9726C10.2567 13.9726 10.6112 13.7834 10.8066 13.445C11.0978 12.9406 10.925 12.2956 10.4205 12.0043Z" fill="black"></path><path d="M33.9028 25.5578L28.0329 22.1688C27.5283 21.8776 26.8833 22.0504 26.5922 22.5549C26.3009 23.0594 26.4738 23.7044 26.9782 23.9956L32.8481 27.3846C33.0143 27.4805 33.1956 27.5261 33.3745 27.5261C33.739 27.5261 34.0936 27.3369 34.2888 26.9986C34.5801 26.494 34.4073 25.849 33.9028 25.5578Z" fill="black"></path><path d="M8.53161 16.9414H1.75342C1.17095 16.9414 0.69873 17.4136 0.69873 17.9961C0.69873 18.5786 1.17095 19.0508 1.75342 19.0508H8.53161C9.11408 19.0508 9.5863 18.5786 9.5863 17.9961C9.5863 17.4136 9.11408 16.9414 8.53161 16.9414Z" fill="black"></path><path d="M35.6432 16.9414H28.8652C28.2828 16.9414 27.8105 17.4136 27.8105 17.9961C27.8105 18.5786 28.2828 19.0508 28.8652 19.0508H35.6432C36.2257 19.0508 36.6979 18.5786 36.6979 17.9961C36.6979 17.4136 36.2257 16.9414 35.6432 16.9414Z" fill="black"></path><path d="M10.8066 22.5549C10.5153 22.0504 9.87042 21.8776 9.36586 22.1689L3.49575 25.5579C2.99133 25.8492 2.8185 26.4942 3.10974 26.9986C3.30506 27.337 3.65958 27.5261 4.02408 27.5261C4.20302 27.5261 4.38436 27.4806 4.55044 27.3846L10.4205 23.9956C10.925 23.7043 11.0978 23.0593 10.8066 22.5549Z" fill="black"></path><path d="M34.2864 9.00114C33.9952 8.49665 33.3502 8.32389 32.8457 8.61512L26.9757 12.0042C26.4713 12.2953 26.2985 12.9404 26.5897 13.4448C26.785 13.7832 27.1396 13.9724 27.5041 13.9724C27.6829 13.9724 27.8643 13.9268 28.0304 13.8309L33.9004 10.4418C34.4048 10.1506 34.5776 9.50556 34.2864 9.00114Z" fill="black"></path><path d="M14.1421 25.8886C13.6377 25.5972 12.9926 25.7701 12.7014 26.2746L9.31237 32.1447C9.02114 32.6491 9.19397 33.2941 9.69839 33.5854C9.86447 33.6813 10.0458 33.7268 10.2247 33.7268C10.5892 33.7268 10.9438 33.5377 11.1391 33.1994L14.5282 27.3293C14.8194 26.8249 14.6466 26.1799 14.1421 25.8886Z" fill="black"></path><path d="M27.6992 2.40913C27.1948 2.11775 26.5497 2.29065 26.2585 2.79515L22.8695 8.66504C22.5782 9.16947 22.7511 9.81451 23.2556 10.1057C23.4216 10.2017 23.603 10.2472 23.7819 10.2472C24.1464 10.2472 24.5009 10.0581 24.6963 9.71973L28.0853 3.84983C28.3765 3.34541 28.2037 2.70036 27.6992 2.40913Z" fill="black"></path></g><defs><clipPath id="clip0_802_7442"><rect width="36" height="36" fill="white" transform="translate(0.696289 -0.00292969)"></rect></clipPath></defs></svg>